<?xml version="1.0" encoding="UTF-8"?>
<!-- Generator: Adobe Illustrator 15.0.0, SVG Export Plug-In . SVG Version: 6.00 Build 0)  -->
<!DOCTYPE svg PUBLIC "-//W3C//DTD SVG 1.1//EN" "http://www.w3.org/Graphics/SVG/1.1/DTD/svg11.dtd">
<svg version="1.1" id="Capa_1" xmlns="http://www.w3.org/2000/svg" xmlns:xlink="http://www.w3.org/1999/xlink" x="0px" y="0px" width="228px" height="228px" viewBox="0 0 228 228" enable-background="new 0 0 228 228" xml:space="preserve">
<rect fill="#d41000" width="228" height="228"/>
<g>
	<g>
		<defs>
			<rect id="SVGID_1_" x="14.271" y="121.193" width="200.697" height="96.429"/>
		</defs>
		<clipPath id="SVGID_2_">
			<use xlink:href="#SVGID_1_" overflow="visible"/>
		</clipPath>
		<g clip-path="url(#SVGID_2_)">
			<defs>
				<rect id="SVGID_3_" x="14.271" y="121.193" width="200.697" height="96.429"/>
			</defs>
			<clipPath id="SVGID_4_">
				<use xlink:href="#SVGID_3_" overflow="visible"/>
			</clipPath>
			<path clip-path="url(#SVGID_4_)" fill="#FFFFFF" d="M132.102,142.324h80.108v71.642h-27.355v-54.708h-8.466v54.708h-27.354     v-54.708h-8.64c7.99,11.874,6.979,30.116-2.281,41.03c-12.229,15.552-34.749,18.243-50.299,6.015v7.663H60.46v-27.354H43.526     v27.354H16.172v-71.642h27.354v27.355H60.46v-27.355h27.354v7.665c12.299-10.22,31.987-10.22,44.288,0V142.324z"/>
			<path clip-path="url(#SVGID_4_)" fill="#d41000" d="M118.424,178.146c0-4.677-3.79-8.467-8.467-8.467     c-4.675,0-8.467,3.79-8.467,8.467c0,4.674,3.792,8.466,8.467,8.466C114.634,186.612,118.424,182.82,118.424,178.146"/>
			<path clip-path="url(#SVGID_4_)" fill="#FFFFFF" d="M111.911,178.146c0-1.08-0.874-1.955-1.954-1.955     c-1.079,0-1.954,0.875-1.954,1.955c0,1.078,0.875,1.952,1.954,1.952C111.037,180.099,111.911,179.225,111.911,178.146"/>
			<rect x="201.786" y="125.391" clip-path="url(#SVGID_4_)" fill="#FFFFFF" width="10.424" height="10.42"/>
			<rect x="184.854" y="125.391" clip-path="url(#SVGID_4_)" fill="#FFFFFF" width="10.421" height="10.42"/>
		</g>
	</g>
</g>
</svg>